# xmcd CD database file
#
# Track frame offsets:
#	150
#	17131
#	35485
#	51494
#	67474
#	84606
#	100927
#	117718
#	132971
#	152072
#	170652
#	185854
#	198227
#
# Disc length: 2814 seconds
#
# Revision: 0
# Processed by: cddbd v1.5.2PL0 Copyright (c) Steve Scherf et al.
# Submitted via: CDex 1.70beta2
#
DISCID=c80afc0d
DTITLE=Annett Louisan - In meiner Mitte
DYEAR=2011
DGENRE=Jazz
TTITLE0=In meiner Mitte
TTITLE1=Verschwinde
TTITLE2=Würdest du
TTITLE3=Allein und beisammen
TTITLE4=Pärchenallergie
TTITLE5=Wenn zwei zueinander passen
TTITLE6=Auf der Jagd nach Mr. Big
TTITLE7=Schlaf (morgen früh bist du zurück)
TTITLE8=Kleiner Augenblick
TTITLE9=Zweite Chance
TTITLE10=Schöner starker Tag
TTITLE11=Von der Liebe
TTITLE12=Vorsicht! Zerbrechlich
EXTD=YEAR: 2011
EXTT0=
EXTT1=
EXTT2=
EXTT3=
EXTT4=
EXTT5=
EXTT6=
EXTT7=
EXTT8=
EXTT9=
EXTT10=
EXTT11=
EXTT12=
PLAYORDER=
